<?xml version="1.0" encoding="UTF-8"?>
<svg width="120px" height="90px" viewBox="0 0 120 90" version="1.1" xmlns="http://www.w3.org/2000/svg" xmlns:xlink="http://www.w3.org/1999/xlink">
    <!-- Generator: Sketch 49 (51002) - http://www.bohemiancoding.com/sketch -->
    <title>customer service</title>
    <desc>Created with Sketch.</desc>
    <defs>
        <path d="M39.2912828,23.4135747 L39.2912828,26.6083515 C39.2912828,27.155426 38.8477913,27.5989176 38.3007167,27.5989176 C38.0391796,27.5989176 37.7882558,27.4954854 37.6026878,27.3111862 L33.6782424,23.4135747 L0,23.4135747 C0,10.4824525 10.5546208,-7.10542736e-15 23.5747697,-7.10542736e-15 C36.5949185,-7.10542736e-15 47.1495393,10.4824525 47.1495393,23.4135747 L39.2912828,23.4135747 Z" id="path-1"></path>
        <path d="M15.1552091,31.2180995 L9.54685158,36.7881093 C9.36128358,36.9724085 9.11035971,37.0758406 8.84882259,37.0758406 C8.30174808,37.0758406 7.85825656,36.6323491 7.85825656,36.0852746 L7.85825656,31.2180995 L0,31.2180995 C0,13.9769285 14.0731552,0 31.4330262,0 C48.7928972,0 62.8660524,13.9769285 62.8660524,31.2180995 L15.1552091,31.2180995 Z" id="path-3"></path>
        <linearGradient x1="13.8478433%" y1="-11.904112%" x2="128.59618%" y2="121.077965%" id="linearGradient-5">
            <stop stop-color="#0B0A5A" offset="0%"></stop>
            <stop stop-color="#0B0A5A" stop-opacity="0.3278078" offset="60.2379624%"></stop>
            <stop stop-color="#0B0A5A" stop-opacity="0" offset="100%"></stop>
        </linearGradient>
    </defs>
    <g id="customer-service" stroke="none" stroke-width="1" fill="none" fill-rule="evenodd">
        <g id="customer-service-copy" transform="translate(20.000000, 6.000000)">
            <g id="Rectangle-10" transform="translate(31.489157, 46.436923)">
                <mask id="mask-2" fill="white">
                    <use xlink:href="#path-1"></use>
                </mask>
                <use id="Mask" fill="#6666FF" fill-rule="nonzero" xlink:href="#path-1"></use>
                <path d="M39.2912828,23.4135747 L39.2912828,26.6083515 C39.2912828,27.155426 38.8477913,27.5989176 38.3007167,27.5989176 C38.0391796,27.5989176 37.7882558,27.4954854 37.6026878,27.3111862 L33.6782424,23.4135747 L33.0764278,23.4135747 L12.9076927,2.52823801 C16.1107647,0.91140039 19.7355841,0 23.5747697,0 C36.5949185,0 47.1495393,10.4824525 47.1495393,23.4135747 L39.2912828,23.4135747 Z" id="Combined-Shape" fill="#5858E6" opacity="0.347995924" mask="url(#mask-2)"></path>
            </g>
            <g id="Rectangle-10" transform="translate(-0.000000, 0.000000)">
                <mask id="mask-4" fill="white">
                    <use xlink:href="#path-3"></use>
                </mask>
                <use id="Mask" fill="#6666FF" fill-rule="nonzero" xlink:href="#path-3"></use>
            </g>
            <path d="M55.2280314,31.6594302 L55.2280314,36.4773132 C55.2280314,37.0243878 54.7845399,37.4678793 54.2374654,37.4678793 C53.9761138,37.4678793 53.7253525,37.3645934 53.5398165,37.1805252 L48.0169765,31.7013766 C15.9116056,31.8798226 -0.09391505,31.8496041 0.000414510031,31.610721 C0.000414510031,14.3572183 14.0982796,0.370882023 31.4893639,0.370882023 C48.8804482,0.370882023 62.9783133,14.3572183 62.9783133,31.610721 C60.3101027,31.6280563 57.7266754,31.6442927 55.2280314,31.6594302 Z" id="Combined-Shape" opacity="0.136662138" fill-rule="nonzero" transform="translate(31.489157, 18.910899) scale(-1, 1) translate(-31.489157, -18.910899) "></path>
            <path d="M14.9613367,31.3304946 L9.43849671,36.8096432 C9.2529608,36.9937114 9.00219943,37.0969972 8.74084784,37.0969972 C8.19377332,37.0969972 7.7502818,36.6535057 7.7502818,36.1064312 L7.7502818,31.2885479 C5.25163786,31.2734106 2.66821059,31.2571742 3.05533376e-13,31.239839 C3.05533376e-13,13.9863363 14.097865,0 31.4889494,0 C36.0448932,0 40.374829,0.959858851 44.2845045,2.68686122 L15.6371327,31.334233 C15.4126657,31.3329972 15.1874005,31.3317511 14.961337,31.3304946 Z" id="Combined-Shape" fill="url(#linearGradient-5)" opacity="0.218523551"></path>
        </g>
    </g>
</svg>