<?xml version="1.0" encoding="UTF-8"?>
<!DOCTYPE svg PUBLIC "-//W3C//DTD SVG 1.1//EN" "http://www.w3.org/Graphics/SVG/1.1/DTD/svg11.dtd">
<!-- Creator: CorelDRAW X8 -->
<svg xmlns="http://www.w3.org/2000/svg" xml:space="preserve" width="2.42423in" height="1.68307in" version="1.1" style="shape-rendering:geometricPrecision; text-rendering:geometricPrecision; image-rendering:optimizeQuality; fill-rule:evenodd; clip-rule:evenodd"
viewBox="0 0 2424 1683"
 xmlns:xlink="http://www.w3.org/1999/xlink">
 <defs>
  <style type="text/css">
   <![CDATA[
    .str0 {stroke:#3E4095;stroke-width:27.7796}
    .fil2 {fill:none}
    .fil1 {fill:#00A859}
    .fil0 {fill:#3E4095;fill-rule:nonzero}
   ]]>
  </style>
 </defs>
 <g id="Layer_x0020_1">
  <metadata id="CorelCorpID_0Corel-Layer"/>
  <path class="fil0" d="M0 1330l56 0c31,0 52,3 66,8 13,6 24,15 32,28 7,12 11,27 11,45 0,19 -5,35 -15,48 -10,13 -24,22 -41,27 -11,3 -29,4 -56,4l0 118 -53 0 0 -278zm53 109l17 0c13,0 22,-1 27,-3 6,-2 10,-5 13,-10 3,-4 4,-9 4,-15 0,-11 -4,-19 -12,-24 -6,-4 -18,-6 -34,-6l-15 0 0 58zm311 -37l51 0 0 206 -51 0 0 -22c-10,10 -21,16 -31,21 -10,4 -21,6 -33,6 -26,0 -49,-10 -69,-31 -19,-20 -29,-46 -29,-76 0,-32 10,-58 28,-78 19,-21 42,-31 69,-31 12,0 24,3 35,7 10,5 20,12 30,21l0 -23zm-55 43c-16,0 -29,5 -39,16 -11,12 -16,26 -16,44 0,18 5,32 16,44 11,11 24,17 40,17 16,0 29,-6 40,-17 11,-11 16,-26 16,-44 0,-18 -5,-33 -16,-44 -11,-11 -24,-16 -41,-16zm310 -122l52 0 0 285 -52 0 0 -22c-10,10 -20,16 -30,21 -10,4 -21,6 -33,6 -27,0 -50,-10 -69,-31 -20,-20 -29,-46 -29,-76 0,-32 9,-58 28,-78 19,-21 42,-31 68,-31 13,0 24,3 35,7 11,5 21,12 30,21l0 -102zm-54 122c-16,0 -29,5 -40,16 -10,12 -16,26 -16,44 0,18 6,32 16,44 11,11 24,17 40,17 16,0 30,-6 40,-17 11,-11 17,-26 17,-44 0,-18 -6,-33 -17,-44 -10,-11 -24,-16 -40,-16zm310 -122l51 0 0 285 -51 0 0 -22c-10,10 -20,16 -30,21 -11,4 -22,6 -33,6 -27,0 -50,-10 -69,-31 -20,-20 -30,-46 -30,-76 0,-32 10,-58 29,-78 18,-21 41,-31 68,-31 12,0 24,3 35,7 11,5 21,12 30,21l0 -102zm-54 122c-16,0 -30,5 -40,16 -11,12 -16,26 -16,44 0,18 5,32 16,44 11,11 24,17 40,17 16,0 29,-6 40,-17 11,-11 16,-26 16,-44 0,-18 -5,-33 -16,-44 -11,-11 -24,-16 -40,-16zm134 -43l53 0 54 129 59 -129 52 0 -128 281 -53 0 42 -90 -79 -191zm618 -23l-37 35c-26,-27 -54,-40 -86,-40 -26,0 -49,9 -67,27 -18,18 -27,41 -27,67 0,19 4,35 12,50 8,14 19,25 34,34 15,8 31,12 49,12 16,0 30,-3 43,-9 12,-6 26,-16 42,-31l35 37c-20,21 -39,34 -58,42 -18,8 -39,12 -62,12 -44,0 -79,-14 -107,-41 -27,-28 -41,-63 -41,-106 0,-27 6,-52 19,-73 13,-22 30,-39 54,-52 23,-13 48,-20 75,-20 23,0 45,5 67,14 21,10 39,24 55,42zm137 18c19,0 38,5 55,15 17,10 30,23 40,39 9,17 14,35 14,54 0,19 -5,37 -14,54 -10,17 -23,30 -40,40 -16,9 -35,14 -55,14 -29,0 -55,-10 -75,-31 -21,-21 -32,-47 -32,-77 0,-32 12,-58 36,-80 20,-18 44,-28 71,-28zm1 49c-16,0 -30,5 -40,16 -11,12 -16,26 -16,43 0,18 5,32 15,43 11,11 24,17 41,17 16,0 29,-6 40,-17 11,-11 16,-25 16,-43 0,-18 -5,-32 -16,-43 -10,-11 -24,-16 -40,-16zm128 -44l53 0 52 122 52 -122 52 0 -88 206 -33 0 -88 -206zm445 118l-166 0c3,14 9,26 19,35 11,8 24,13 40,13 19,0 36,-7 49,-21l44 21c-11,15 -24,27 -39,34 -15,7 -33,11 -54,11 -32,0 -58,-10 -78,-30 -21,-21 -31,-46 -31,-77 0,-31 10,-57 31,-78 20,-20 45,-31 76,-31 32,0 58,11 79,31 20,21 30,48 30,82l0 10zm-52 -41c-3,-11 -10,-20 -20,-27 -10,-7 -21,-11 -35,-11 -14,0 -27,4 -38,12 -6,5 -13,14 -18,26l111 0zm82 -77l44 0 0 26c5,-10 12,-17 19,-23 8,-5 17,-8 26,-8 7,0 14,2 21,6l-16 44c-6,-3 -11,-4 -15,-4 -7,0 -14,5 -20,14 -5,10 -8,29 -8,58l0 10 0 83 -51 0 0 -206z"/>
  <path class="fil1" d="M1212 14c669,0 1212,543 1212,1212 0,-74 -117,-134 -260,-134 -144,0 -261,60 -261,134l-25 0c0,-74 -147,-134 -328,-134 -181,0 -327,60 -327,134l-28 0c0,-74 -144,-134 -323,-134 -179,0 -323,60 -323,134l-25 0c0,-74 -118,-134 -262,-134 -145,0 -262,60 -262,134 0,-669 543,-1212 1212,-1212z"/>
  <g>
   <path class="fil2 str0" d="M1212 14c350,-16 700,545 678,1212m-678 -1212c-350,-16 -699,545 -678,1212"/>
  </g>
  <g>
   <line class="fil2 str0" x1="1212" y1="1226" x2="1212" y2= "14" />
  </g>
 </g>
</svg>
