<svg id="Motor" xmlns="http://www.w3.org/2000/svg" xmlns:xlink="http://www.w3.org/1999/xlink" viewBox="0 0 747.38 570"><defs><style>.cls-1{fill:none;}.cls-2,.cls-35{opacity:0.03;}.cls-3{fill:url(#linear-gradient);}.cls-20,.cls-4,.cls-5,.cls-6{fill:#ffd23b;}.cls-4{opacity:0.1;}.cls-5{opacity:0.15;}.cls-6{stroke:#f9ba08;}.cls-6,.cls-7{stroke-miterlimit:10;stroke-width:5.46px;}.cls-13,.cls-15,.cls-7{fill:#339;}.cls-7{stroke:#339;}.cls-13,.cls-7{opacity:0.05;}.cls-8{fill:#f9ba08;}.cls-9{opacity:0.8;}.cls-10{fill:#f8f8ff;}.cls-11{clip-path:url(#clip-path);}.cls-12{fill:#dedeff;}.cls-14,.cls-24{fill:#534bff;}.cls-14{opacity:0.06;}.cls-16,.cls-35{fill:#0a0a5c;}.cls-17{fill:#d1d1ff;}.cls-18{fill:#fff;}.cls-19{fill:#e8e8ff;}.cls-21{fill:#c19b91;}.cls-22{fill:#cea497;}.cls-23{fill:#fdede4;opacity:0.07;}.cls-25{fill:#9d9fbd;}.cls-26{fill:#9e6657;}.cls-27{fill:#af7e6d;}.cls-28{fill:#7f4e46;opacity:0.2;}.cls-29{fill:#f5f5ff;}.cls-30{fill:#f33;}.cls-31{fill:#f2f2f2;}.cls-32{fill:#0b0f5a;}.cls-33{fill:url(#linear-gradient-2);}.cls-34{fill:url(#linear-gradient-3);}.cls-36{clip-path:url(#clip-path-2);}</style><linearGradient id="linear-gradient" x1="7.78" y1="259.31" x2="659.66" y2="259.31" gradientUnits="userSpaceOnUse"><stop offset="0" stop-color="#f33"/><stop offset="0.99" stop-color="#534bff"/></linearGradient><clipPath id="clip-path"><rect class="cls-1" x="38.99" y="210.87" width="192.68" height="55.6"/></clipPath><linearGradient id="linear-gradient-2" x1="316.68" y1="297.49" x2="313.83" y2="295.85" gradientUnits="userSpaceOnUse"><stop offset="0" stop-color="#fff"/><stop offset="0.47" stop-color="#e8e8ff" stop-opacity="0.5"/><stop offset="0.99" stop-color="#fff"/></linearGradient><linearGradient id="linear-gradient-3" x1="-2310.67" y1="7205.86" x2="-2313.52" y2="7204.21" gradientTransform="matrix(0.52, 0.85, -0.85, 0.52, 7678.64, -1501.23)" xlink:href="#linear-gradient-2"/><clipPath id="clip-path-2"><rect class="cls-1" x="0.72" y="539.08" width="748.57" height="1334"/></clipPath></defs><title>Motor fully comprehenisve</title><g class="cls-2"><path class="cls-3" d="M648.71,271.67C695.05,145.55,587.43,16.12,455.1,39.46c-1.41.24-2.83.5-4.26.76C411,47.51,372,56.4,334.16,67.88c-72.43,22-139.18,51.6-198.41,88.05-45.48,28-71.39,50.88-78.25,57.22A155,155,0,0,0,268.06,440.67a322.59,322.59,0,0,1,30.17-20.73c25.15-15.48,67.43-37.66,126-55.42,35.94-10.91,115.16-34.2,173.21-47.59a71.85,71.85,0,0,0,51.31-45.26Z"/></g><path class="cls-1" d="M164.53,390.51c68.94,11.29,143.52,42.71,226,63.13,64.87,18,154.37,33,250.2,47.16V240.55L156.61,110.61Z"/><circle class="cls-4" cx="359.29" cy="144.5" r="66.62"/><circle class="cls-5" cx="359.29" cy="144.5" r="48.81"/><path class="cls-6" d="M328.7,122.31a2.56,2.56,0,0,1,2.53-2.61h57.62a2.56,2.56,0,0,1,2.53,2.61C391.38,163.1,364.8,183,360,183S328.7,162.39,328.7,122.31Z"/><path class="cls-7" d="M360,119.7h28.81a2.56,2.56,0,0,1,2.53,2.61C391.38,163.1,364.8,183,360,183Z"/><path class="cls-8" d="M374.4,139.93a1,1,0,0,1,0,1.37l-13.46,13.46-4,4a1,1,0,0,1-1.38,0l-4-4-5.81-5.82a1,1,0,0,1,0-1.37l3.34-3.35a1,1,0,0,1,1.38,0l5.12,5.13a1,1,0,0,0,1.38,0l12.77-12.78a1,1,0,0,1,1.38,0Z"/><g class="cls-9"><path class="cls-10" d="M374.4,137.93a1,1,0,0,1,0,1.37l-13.46,13.46-4,4a1,1,0,0,1-1.38,0l-4-4-5.81-5.82a1,1,0,0,1,0-1.37l3.34-3.35a1,1,0,0,1,1.38,0l5.12,5.13a1,1,0,0,0,1.38,0l12.77-12.78a1,1,0,0,1,1.38,0Z"/></g><g class="cls-11"><path class="cls-12" d="M231.42,259.74a18.32,18.32,0,0,1-26.14,16.55,21.44,21.44,0,0,1-34.84,4.14,21.44,21.44,0,0,1-36.24-7.35,18.37,18.37,0,0,1-20.38,3.21A21.44,21.44,0,0,1,79,280.43a21.44,21.44,0,1,1-16-35.75,21.18,21.18,0,0,1,5.84.81,11.09,11.09,0,0,1,20.45-5.15,12.78,12.78,0,0,1,24.74,2.76,18.32,18.32,0,0,1,24.23,9,21.46,21.46,0,0,1,22.05-6.59,11.08,11.08,0,0,1,20.44-5.15,12.78,12.78,0,0,1,24.74,2.76,18.31,18.31,0,0,1,25.91,16.64Z"/></g><rect class="cls-12" x="601.19" y="241.67" width="3.68" height="23.83"/><rect class="cls-13" x="601.19" y="241.67" width="3.68" height="3.3"/><circle class="cls-14" cx="602.99" cy="225.89" r="15.78"/><path class="cls-13" d="M603,237.13a15.78,15.78,0,0,1-15.6-13.51,17.09,17.09,0,0,0-.18,2.27,15.78,15.78,0,1,0,31.55,0,15.56,15.56,0,0,0-.18-2.27A15.76,15.76,0,0,1,603,237.13Z"/><rect class="cls-12" x="621.55" y="246.34" width="2.96" height="19.16"/><rect class="cls-13" x="621.55" y="246.34" width="2.96" height="2.65"/><ellipse class="cls-12" cx="623.31" cy="234.98" rx="16.66" ry="11.36"/><path class="cls-13" d="M623.31,243.07c-8.39,0-15.31-4.23-16.48-9.72a8,8,0,0,0-.19,1.63c0,6.27,7.46,11.36,16.67,11.36S640,241.25,640,235a8,8,0,0,0-.19-1.63C638.61,238.84,631.69,243.07,623.31,243.07Z"/><path class="cls-15" d="M617.21,430.63v30.9a8.36,8.36,0,0,1-8.36,8.37h-390a8.36,8.36,0,0,1-8.37-8.37v-30.9a8.36,8.36,0,0,1,8.37-8.36h10.55V321.39h.7V248.5a8.36,8.36,0,0,1,8.36-8.36H468.12a8.35,8.35,0,0,1,8,6.08l21.34,75.17h93.84a8.36,8.36,0,0,1,8.36,8.37v92.51h9.15A8.36,8.36,0,0,1,617.21,430.63Z"/><path class="cls-16" d="M199.2,299.05h30.88a0,0,0,0,1,0,0v92.46a0,0,0,0,1,0,0H199.2a6.95,6.95,0,0,1-6.95-6.95V306A6.95,6.95,0,0,1,199.2,299.05Z"/><circle class="cls-17" cx="310.78" cy="466.33" r="42.87"/><circle class="cls-17" cx="502.89" cy="466.33" r="42.87"/><circle class="cls-18" cx="502.89" cy="466.33" r="23.26"/><circle class="cls-18" cx="310.49" cy="466.33" r="23.26"/><rect class="cls-19" x="252.49" y="261.23" width="98.07" height="64.45" rx="3.42" ry="3.42"/><path class="cls-19" d="M470.86,325.67H370.79a3.42,3.42,0,0,1-3.42-3.41V264.64a3.42,3.42,0,0,1,3.42-3.41h85.54a3.4,3.4,0,0,1,3.31,2.58l14.54,57.61A3.42,3.42,0,0,1,470.86,325.67Z"/><rect class="cls-18" x="570.98" y="364.9" width="42.03" height="30.82" rx="9.92" ry="9.92"/><rect class="cls-19" x="419.94" y="360.73" width="32.89" height="13.95" rx="6.98" ry="6.98"/><path class="cls-20" d="M436.87,312.25l-2.11,13.89L387.62,326s-3-30.68,23.24-29.95h7.25C439.93,294.83,436.87,312.25,436.87,312.25Z"/><path class="cls-21" d="M415.7,302.12h0a4.35,4.35,0,0,1-4.27-4.42l-.06-6,8.43-.09.07,6A4.36,4.36,0,0,1,415.7,302.12Z"/><rect class="cls-22" x="388.46" y="321.59" width="8.62" height="42.31"/><polygon class="cls-22" points="470.6 307.24 472.06 313.48 427.51 310.78 427.55 301.65 470.6 307.24"/><circle class="cls-21" cx="393.35" cy="365.24" r="7.42"/><rect class="cls-20" x="388.46" y="316.38" width="47.78" height="9.64"/><circle class="cls-23" cx="259.91" cy="274.6" r="1.64"/><rect class="cls-15" x="230.08" y="304" width="22.42" height="32.59"/><path class="cls-20" d="M422.09,295.78l16.69,2.39c1.64,4.8,1.19,10.18-.48,15.9H418.74Z"/><path class="cls-22" d="M420.44,294.61a20.57,20.57,0,0,1-24.84-15.42l-4.74-27.52,38.94-11.42,5.84,29.17a20.91,20.91,0,0,1-15.2,25.19"/><path class="cls-24" d="M386.82,263.31s2.92,25.53,5,26.39c5.14,2.14,15.31,3.76,14.92-1.57-.43-5.87-4.46-16.5-4.63-17.49l-2.31-9.34L424,253.47l1.77-4.12,3.45,2.83,7-4.07c-6.92-14.08-23.86-16.82-32.59-14-12.55,4.12-18.83,14.72-16.9,28.3"/><path class="cls-22" d="M407.23,271.78a7.45,7.45,0,0,1-6.55,8.34,7.65,7.65,0,0,1-8.05-7.08,7.45,7.45,0,0,1,6.55-8.34,7.65,7.65,0,0,1,8.05,7.08"/><path class="cls-21" d="M401.4,272.26a2.18,2.18,0,0,1-1.91,2.43,2.23,2.23,0,0,1-2.34-2.07,2.17,2.17,0,0,1,1.9-2.43,2.24,2.24,0,0,1,2.35,2.07"/><line class="cls-25" x1="418.34" y1="266.5" x2="416.96" y2="261.87"/><path class="cls-16" d="M425.18,283.52h0a6.58,6.58,0,0,1-7.94-5.1l-.09-.4,12.72-3.29.09.4A6.94,6.94,0,0,1,425.18,283.52Z"/><rect class="cls-16" x="417.08" y="260.56" width="2.94" height="7.6" rx="1.46" ry="1.46" transform="translate(-51.08 107.78) rotate(-13.84)"/><rect class="cls-16" x="424.27" y="258.79" width="2.94" height="7.6" rx="1.46" ry="1.46" transform="translate(-50.45 109.45) rotate(-13.84)"/><rect class="cls-15" x="252.22" y="240.14" width="101.43" height="21.26"/><rect class="cls-15" x="230.08" y="326.32" width="147.98" height="65.2"/><path class="cls-16" d="M310.16,325.67h-37.1A1.76,1.76,0,0,1,271.3,324l-.92-13.7c-.08-9.06,10.64-16.71,19.7-16.79h0c9.06-.07,19.56,7.21,19.63,16.27Z"/><path class="cls-26" d="M296.25,288.19c-.32.09-.64.16-1,.23a22,22,0,0,1-4.38.48,21.42,21.42,0,0,1-4.68-.47l.11,6.12a5.17,5.17,0,0,0,5.06,5.21h.06a5.17,5.17,0,0,0,4.92-5.34v-.07l-.12-6.16"/><path class="cls-27" d="M301.18,288.8A20.43,20.43,0,0,1,273,282.28l-10.6-18,31.11-27.81,14.1,24a20.6,20.6,0,0,1-6.39,28.35"/><path class="cls-16" d="M294.57,254.23a1.76,1.76,0,0,0-2.5-.46,1.9,1.9,0,0,0-.35,2.59l2.63,3.73a1.77,1.77,0,0,0,2.5.47,1.89,1.89,0,0,0,.35-2.59Z"/><path class="cls-16" d="M289.44,265.28h0a1.77,1.77,0,0,1-2.5-.46l-2.62-3.73a1.88,1.88,0,0,1,.34-2.59,1.75,1.75,0,0,1,2.5.46l2.63,3.73A1.89,1.89,0,0,1,289.44,265.28Z"/><path class="cls-16" d="M300.91,280h0a9.07,9.07,0,0,1-12.64-3.17l-.3-.47,15.2-9.91.29.47A9.58,9.58,0,0,1,300.91,280Z"/><path class="cls-24" d="M268.13,260s4,6.54,1.64,8.95c-2.53,2.57-9.54.92-10.89-3.62,0,0-12.78-.75-6.81-9.79,0,0,.63-13.62,12.69-13,0,0,2.72-22,18.25-15.35,0,0,6.73-2,8.21,2.56,0,0,8,2.34,7.2,8.15,0,0,0,11.24-10.57,8,0,0-.25,6.09-6.31,6.34C281.54,252.35,273.56,267,268.13,260Z"/><path class="cls-27" d="M276.94,272.49a7,7,0,0,1-3.34,9.43,7.2,7.2,0,0,1-9.33-3.91,7,7,0,0,1,3.35-9.43,7.21,7.21,0,0,1,9.32,3.91"/><path class="cls-28" d="M269.69,273.94a1.52,1.52,0,1,0,2,.87,1.53,1.53,0,0,0-2-.87"/><path class="cls-18" d="M329.45,316.58c4.83,4.7,6.14,1.86,7.55,9.24l-25.28,0c1.22-7.28,2.17-4.43,6.61-9.63Z"/><path class="cls-24" d="M317.35,317.92c2.95,1.07,10,1.45,12.9-.12.65-.59,0-1.33,0-2.06h0a1.76,1.76,0,0,0-1.76-1.76h-9.24a1.76,1.76,0,0,0-1.76,1.76h0C317.47,316.71,316.67,317.7,317.35,317.92Z"/><path class="cls-29" d="M325.8,316.9l-3.1.22c-2.93.29-4.42-1.74-4.7-4.67h0a5.32,5.32,0,0,1,4.77-5.82l.83-.08a5.33,5.33,0,0,1,5.82,4.77h0C329.71,314.25,328.72,316.61,325.8,316.9Z"/><path class="cls-30" d="M320.92,303.06h4.89a0,0,0,0,1,0,0v10.08a2.45,2.45,0,0,1-2.45,2.45h0a2.45,2.45,0,0,1-2.45-2.45V303.06a0,0,0,0,1,0,0Z" transform="translate(-28.81 33.25) rotate(-5.63)"/><path class="cls-18" d="M333.7,293.39l-27.09,4.09-.33-5,9.71-2.3a41.55,41.55,0,0,1,7.1-1.07l10.73-.78Z"/><path class="cls-18" d="M333.77,295.11a36.67,36.67,0,0,0,3.26,7.55c.65,1.24-2-.07-2,.77a15.45,15.45,0,0,0,1.53,3.87c.48.82-1.77-.32-2,.81-.08.41,1.46,2.47,1.34,2.86-.19.65-2.56.25-2.85.81-.45.86,1,1.59.24,2-4.17,2.08-8-1.11-8-1.11a4.2,4.2,0,0,1-5.57,2c-3.92-1.41-5.18-9.51-5.18-9.51A44.65,44.65,0,0,1,314,297c-.11-4.47,1.41-8.21,7-8.77l3.88-.39c2.79-.28,4,0,6,1.23S333.26,292.93,333.77,295.11Z"/><path class="cls-18" d="M308.71,299.07a36.91,36.91,0,0,1-.77,8.19c-.24,1.38,1.89-.69,2.16.11a15.81,15.81,0,0,1-.27,4.15c-.2.93,1.59-.84,2.16.16.21.36-.62,2.8-.39,3.13.38.56,2.52-.55,3-.11.71.68-.46,1.83.39,2,4.62.69,7.31-3.53,7.31-3.53a4.2,4.2,0,0,0,5.92.2c3.3-2.55,2-10.64,2-10.64a44.73,44.73,0,0,0-2.1-7.95c-1.27-4.29-3.87-7.38-9.36-6.19l-3.8.83c-2.75.59-3.82,1.19-5.3,3S308.52,296.84,308.71,299.07Z"/><path class="cls-31" d="M330.05,300c.08,1,.5,2.92-1.15,3s-4.27-.15-4.35-1.18-.14-2.53,1.5-2.66S330,298.94,330.05,300Z"/><path class="cls-32" d="M325.67,311.06c.17,1.14-.79,1.59-1.94,1.7s-2,.05-2.2-1.09a2.09,2.09,0,1,1,4.14-.61Z"/><circle class="cls-16" cx="326.87" cy="300.96" r="0.66"/><circle class="cls-16" cx="316.89" cy="302.49" r="0.66"/><path class="cls-18" d="M308.18,290.72c-6.61-2.11-5.06,4.29-7,10.18C298.26,313.89,317.17,293.1,308.18,290.72Z"/><path class="cls-18" d="M333.06,286.84c-5.56,4.16.56,6.6,4.23,11.62C346.2,308.34,340.21,280.89,333.06,286.84Z"/><path class="cls-33" d="M318.15,294.75c-1.38,3.87-5.88,3.79-5.88,3.79Z"/><path class="cls-34" d="M331.28,297c-4,.85-6.31-3-6.31-3Z"/><path class="cls-35" d="M317.51,324.22a3.09,3.09,0,0,1-.44,1.59l-.61-.11c-1.71,0-5.16.24-5.16-1.48s1.67-2.64,3.39-2.64l.22-.42A3,3,0,0,1,317.51,324.22Z"/><path class="cls-35" d="M330.53,324.22a2.83,2.83,0,0,0,.33,1.39l.51-.11.2.2c1.72,0,5.17.24,5.17-1.48s-1.68-2.64-3.39-2.64l-.22-.42A3,3,0,0,0,330.53,324.22Z"/><path class="cls-18" d="M316.71,324.49c0,1.71-1.39,2.31-3.11,2.31s-3.1-.6-3.1-2.31a3.11,3.11,0,1,1,6.21,0Z"/><path class="cls-18" d="M337.42,324.49c0,1.71-1.39,2.31-3.11,2.31s-3.1-.6-3.1-2.31a3.11,3.11,0,1,1,6.21,0Z"/><g class="cls-36"><rect class="cls-1" x="-0.72" y="539.39" width="750" height="1338.15"/><rect class="cls-1" x="-2.68" y="541.47" width="753.4" height="1331.92"/></g></svg>