<svg viewBox="0 0 3780.78 1110.93" xmlns="http://www.w3.org/2000/svg" xmlns:xlink="http://www.w3.org/1999/xlink"><radialGradient id="a" cx="976.72" cy="806.03" gradientUnits="userSpaceOnUse" r="74.71"><stop offset="0" stop-color="#fff" stop-opacity="0"/><stop offset="1" stop-color="#fff" stop-opacity=".12"/></radialGradient><path d="m0 1117.1h3780.78v-1132.81h-3780.78z" fill="#f5f5ff"/><path d="m2361.37 853.8a.95.95 0 1 0 1-.95 1 1 0 0 0 -1 .95z" fill="#fff"/><path d="m2875.06 734.8v10.59a55 55 0 0 1 -55 55 2.12 2.12 0 0 0 -2.12 2.12v30.79a2.12 2.12 0 0 1 -3.62 1.5l-33.79-33.8a2.12 2.12 0 0 0 -1.5-.62h-102.74a55 55 0 0 1 -55-55v-10.58a55 55 0 0 1 55-55h143.8a55 55 0 0 1 54.97 55z" fill="#e5e5ff"/><path d="m2866 745.68v10.58a55 55 0 0 1 -55 55 2.12 2.12 0 0 0 -2.12 2.12v30.82a2.12 2.12 0 0 1 -3.62 1.5l-33.82-33.82a2.16 2.16 0 0 0 -1.5-.62h-102.71a55 55 0 0 1 -55-55v-10.58a55 55 0 0 1 55-55h143.77a55 55 0 0 1 55 55z" fill="#534bff"/><path d="m3174.16 938.1h-96.16a37.1 37.1 0 0 1 -37.1-37.1v-7.7a2.31 2.31 0 0 0 -2.31-2.32h-30.15a2.32 2.32 0 0 1 -1.64-4l33.42-33.42a2.32 2.32 0 0 0 .68-1.64 37.1 37.1 0 0 1 37.1-37.1h96.17a37.1 37.1 0 0 1 37.1 37.1v49a37.1 37.1 0 0 1 -37.11 37.18z" fill="#e5e5ff"/><path d="m3163.29 929h-96.17a37.1 37.1 0 0 1 -37.1-37.1v-7.7a2.32 2.32 0 0 0 -2.32-2.32h-30.14a2.32 2.32 0 0 1 -1.64-4l33.42-33.42a2.32 2.32 0 0 0 .68-1.64 37.1 37.1 0 0 1 37.1-37.1h96.17a37.1 37.1 0 0 1 37.1 37.1v49a37.1 37.1 0 0 1 -37.1 37.18z" fill="#ffd23b"/><circle cx="3084.39" cy="869.23" fill="#f33" opacity=".15" r="7.25"/><circle cx="3116.11" cy="869.23" fill="#f33" opacity=".15" r="7.25"/><circle cx="3147.83" cy="869.23" fill="#f33" opacity=".15" r="7.25"/><path d="m3084.27 635.73a70.07 70.07 0 0 1 -54.27 52.85 72.41 72.41 0 0 1 -34.3-1.18l-21.7 21.66a2.53 2.53 0 0 1 -4.32-1.78v-33.61a71 71 0 0 1 42.41-125.58c46.12-1.9 82.98 40.12 72.18 87.64z" fill="#e5e5ff"/><path d="m3095.91 635.73a70.07 70.07 0 0 1 -54.27 52.85 72.36 72.36 0 0 1 -34.29-1.18l-21.67 21.66a2.52 2.52 0 0 1 -4.31-1.78v-33.61c-19.5-16.23-30.17-42.69-23.75-71.15a69.91 69.91 0 0 1 52.88-52.68c51.97-11.54 97.24 33.89 85.41 85.89z" fill="#339"/><g fill="#0a0a5c"><circle cx="2995.58" cy="623.92" opacity=".4" r="7.25"/><circle cx="3027.3" cy="623.92" opacity=".4" r="7.25"/><circle cx="3059.02" cy="623.92" opacity=".4" r="7.25"/><circle cx="2707.41" cy="750.38" opacity=".2" r="7.25"/><circle cx="2739.13" cy="750.38" opacity=".2" r="7.25"/><circle cx="2770.85" cy="750.38" opacity=".2" r="7.25"/><path d="m1076.72 1110.93h-12.12l-10.95-87.6h23.07z"/><path d="m887.71 1110.93h-12.12v-87.6h23.07z"/></g><path d="m895.41 1049.32-19.82.44v-26.43h23.07z" opacity=".3"/><path d="m1056.83 1049.32 19.82.44v-26.43h-23.07z" opacity=".3"/><path d="m975.69 776.19a110.24 110.24 0 0 1 110.24 110.24v117.83a0 0 0 0 1 0 0h-220.47a0 0 0 0 1 0 0v-117.83a110.24 110.24 0 0 1 110.23-110.24z" fill="#0a0a5c"/><path d="m852.53 992.78h247.26a0 0 0 0 1 0 0v15.65a22.86 22.86 0 0 1 -22.86 22.86h-201.55a22.86 22.86 0 0 1 -22.86-22.86v-15.65a0 0 0 0 1 .01 0z" fill="#121266"/><path d="m768.7 1110.93h-16.13l-10-109.19h26.13z" fill="#534bff"/><path d="m768.7 1035.18h-23.07l-3.06-33.44h26.13z" fill="#0a0a5c" opacity=".1"/><path d="m580.98 1110.93h-16.13v-109.19h26.13z" fill="#534bff"/><path d="m587.91 1035.18h-23.06v-33.44h26.13z" fill="#0a0a5c" opacity=".1"/><path d="m804.2 1006.88v-22.13a7.49 7.49 0 0 0 -7.5-7.5h-250.91a7.5 7.5 0 0 0 -7.5 7.5v22.13" fill="#534bff"/><path d="m589.41 829.88h12.26v140.97h-12.26z" fill="#339" transform="matrix(.98939944 -.14521967 .14521967 .98939944 -124.44 96.03)"/><path d="m734 785.41a20.36 20.36 0 1 1 -20.36-20.36 20.35 20.35 0 0 1 20.36 20.36z" fill="#ffd23b"/><path d="m651.47 977h-89.64v-6.21a8.34 8.34 0 0 1 8.34-8.35h73a8.35 8.35 0 0 1 8.35 8.35z" fill="#339"/><path d="m643.12 962.43h-73a8.34 8.34 0 0 0 -8.34 8.35v2.46a8.34 8.34 0 0 1 8.34-8.35h73a8.35 8.35 0 0 1 8.35 8.35v-2.46a8.35 8.35 0 0 0 -8.35-8.35z" fill="#f5f5ff" opacity=".1"/><path d="m582.26 830.41h12.26v42.47h-12.26z" fill="#0a0a5c" opacity=".2" transform="matrix(.98939944 -.14521967 .14521967 .98939944 -117.44 94.48)"/><path d="m565.37 795.75h100.33v12.26h-100.33z" fill="#339" transform="matrix(.63702046 -.77084689 .77084689 .63702046 -394.7 765.5)"/><path d="m624.12 768.08h28.55v12.26h-28.55z" fill="#0a0a5c" opacity=".2" transform="matrix(.63702046 -.77084689 .77084689 .63702046 -365.07 773.11)"/><path d="m603.2 836a16.09 16.09 0 1 1 -16.09-16.09 16.09 16.09 0 0 1 16.09 16.09z" fill="#339"/><path d="m679.37 737.08-25.22 42.92-11.56-6.79a24.9 24.9 0 0 1 25.22-42.94z" fill="#339"/><path d="m746.93 746.11-52 88.52-19.16-11.25a51.33 51.33 0 1 1 52-88.52z" fill="#339"/><path d="m684.73 815.51a51.26 51.26 0 0 1 -14.4-75.91 51.05 51.05 0 0 0 -12.65 14.4 51.35 51.35 0 0 0 18.26 70.27l19.16 11.25 6.1-10.38z" fill="#0a0a5c" opacity=".2"/><path d="m960.58 787.61v16.18a14.73 14.73 0 1 0 29.45 0v-16.46a64 64 0 0 1 -29.45.28z" opacity=".07"/><path d="m935.37 697.5 28.63 51.83c22.14 38.34.72 58.12.72 58.12 6.25 19-73 13.58-64.08-10.16-30.34-.58-28.3-34.35-14.63-42.62 0 0-24-33.49 6.48-54.3-.05 0 50.82-.44 42.88-2.87z" fill="#251e7c"/><path d="m1007.64 635.8-21.82 103.56c-25 37.35 1.35 59.74 1.35 59.74-7.68 18.66 75 28 67.86 3.9 30.34.69 26.54-45.23 13.52-54.07 0 0 14.86-32.92-14-55-2.26-48.35-42.55-63.88-46.91-58.13z" fill="#251e7c"/><path d="m982.19 796.33c-36.07 2.32-66.59-26.67-68.19-64.74l-1.06-70.22 130.29 1 1.39 60.83c1.59 38.07-26.36 70.8-62.43 73.13z" fill="#e5bdac"/><path d="m890.82 752.92s-18.71-44.92 11.79-72.85c-5.06-54.21 45.53-71.51 65.78-72.22 68.52-2.4 86.85 48 83.53 69.34-.73 4.73-3.9 60.65-8.1 62.58-2.17 1-9.76-48.23-9.76-48.23-7.56 6.39-21.2 7.87-29.44-4.91-2.74 14.3-41 19-46.71-.06-8 5.48-16.06 4-24 .78l-25.79 60.24z" fill="#251e7c"/><ellipse cx="1042.14" cy="722.51" fill="#e5bdac" rx="17.5" ry="18.53" transform="matrix(.99999391 -.00349065 .00349065 .99999391 -2.55 3.7)"/><ellipse cx="911.88" cy="722.51" fill="#e5bdac" rx="17.5" ry="18.53" transform="matrix(.99999391 -.00349065 .00349065 .99999391 -2.55 3.24)"/><path d="m977.79 786.26c-11.92.08-21.41-10-21.2-22.61v-1.34l43.17-.26v1.33c-.22 12.62-10.05 22.81-21.97 22.88z" fill="#0a0a5c"/><rect fill="#0a0a5c" height="23.92" rx="5.35" width="10.7" x="959.5" y="717.56"/><rect fill="#0a0a5c" height="23.92" rx="5.35" width="10.7" x="984.17" y="717.56"/><path d="m1082.45 922.59a17.34 17.34 0 0 1 17.34 17.34v64.33a0 0 0 0 1 0 0h-34.67a0 0 0 0 1 0 0v-64.33a17.34 17.34 0 0 1 17.33-17.34z" fill="#121266"/><path d="m976.16 795.07a81.43 81.43 0 0 1 81.43 81.43v65.5a15.91 15.91 0 0 1 -15.91 15.91h-131a15.91 15.91 0 0 1 -15.95-15.91v-65.5a81.43 81.43 0 0 1 81.43-81.43z" fill="#ffd23b"/><path d="m961.43 793.17h29.45a0 0 0 0 1 0 0v10.62a14.73 14.73 0 0 1 -14.73 14.73 14.73 14.73 0 0 1 -14.73-14.73v-10.62a0 0 0 0 1 .01 0z" fill="#d3aa9b"/><rect fill="#534bff" height="57.5" rx="4.4" width="20.57" x="893.43" y="686.67"/><path d="m892 698.54h1.41a0 0 0 0 1 0 0v33.76a0 0 0 0 1 0 0h-1.41a10.67 10.67 0 0 1 -10.67-10.67v-12.42a10.67 10.67 0 0 1 10.67-10.67z" fill="#534bff"/><rect fill="#534bff" height="57.5" rx="4.4" transform="matrix(-1 0 0 -1 2108.21 1430.84)" width="20.57" x="1043.82" y="686.67"/><path d="m1075.07 698.54h1.41a0 0 0 0 1 0 0v33.76a0 0 0 0 1 0 0h-1.41a10.67 10.67 0 0 1 -10.67-10.67v-12.42a10.67 10.67 0 0 1 10.67-10.67z" fill="#534bff" transform="matrix(-1 0 0 -1 2140.86 1430.84)"/><path d="m904.36 725.19v-40.62a74.55 74.55 0 0 1 74.55-74.57 74.55 74.55 0 0 1 74.55 74.54v40.62" fill="none" stroke="#534bff" stroke-miterlimit="10" stroke-width="12.27"/><path d="m942.58 785.17s27.56 22 65.06 4z" fill="#e5bdac"/><path d="m897.3 959.15h157.71v39.56h-157.71z" fill="#251e7c"/><path d="m725.73 845.17c10.35 14.61 7.92 17.05.61 32.27s7.31 19.48 7.31 19.48-13.4-7.91-2.44-24.35-5.48-27.4-5.48-27.4z" fill="#d9d9ff"/><path d="m752.81 874c5.7 8 4.36 9.38.34 17.75s4 10.72 4 10.72-7.37-4.35-1.34-13.4-3-15.07-3-15.07z" fill="#d9d9ff"/><path d="m869.79 922.59a17.34 17.34 0 0 1 17.34 17.34v64.33a0 0 0 0 1 0 0h-34.68a0 0 0 0 1 0 0v-64.33a17.34 17.34 0 0 1 17.34-17.34z" fill="#121266"/><path d="m955.12 1110.14 71.38.79 38-100.91c8.51-22.56-7.71-46.85-31.27-46.85a33.56 33.56 0 0 0 -31.3 22.06z" fill="#339"/><path d="m1058.89 975.4a32.88 32.88 0 0 0 -25.63-12.23 33.26 33.26 0 0 0 -26.54 13.37c-1.96 2.6 53.71.74 52.17-1.14z" fill="#121266" opacity=".1"/><path d="m1018.14 1110.14-71.38.79-32.94-88.38h71.96z" fill="#0a0a5c" opacity=".1"/><path d="m996.29 1110.14-71.37.79-36.87-102c-8.13-22.49 3.81-44.36 25.55-46.4 0 0 23.57-2.93 35.28 17.45.89 1.59 47.41 130.16 47.41 130.16z" fill="#339"/><path d="m891.56 975a30 30 0 0 1 22-12.44s19.27-2.39 31.61 12.2c1.35 1.57-55.52 2.94-53.61.24z" fill="#121266" opacity=".1"/><path d="m764 922.59a21.88 21.88 0 0 1 0 43.76" fill="none" stroke="#ffd23b" stroke-miterlimit="10" stroke-width="8.1"/><path d="m712.86 911.85h54.57a3.17 3.17 0 0 1 3.17 3.15v45.84a16.24 16.24 0 0 1 -16.24 16.24h-28.42a16.24 16.24 0 0 1 -16.24-16.24v-45.84a3.17 3.17 0 0 1 3.16-3.15z" fill="#ffd23b"/><path d="m754.37 968.73h-28.43a16.24 16.24 0 0 1 -16.24-16.24v8.56a16.24 16.24 0 0 0 16.24 16.24h28.43a16.24 16.24 0 0 0 16.23-16.24v-8.56a16.24 16.24 0 0 1 -16.23 16.24z" fill="#534bff" opacity=".05"/><path d="m713.09 960.86v-45.86a3.17 3.17 0 0 1 3.17-3.17h-3.4a3.17 3.17 0 0 0 -3.16 3.17v45.84a16.24 16.24 0 0 0 16.24 16.24h3.39a16.24 16.24 0 0 1 -16.24-16.22z" fill="#534bff" opacity=".05"/><path d="m767.44 911.85h-3.44a3.17 3.17 0 0 1 3.17 3.17v45.84a16.24 16.24 0 0 1 -16.17 16.24h3.4a16.24 16.24 0 0 0 16.23-16.24v-45.86a3.17 3.17 0 0 0 -3.19-3.15z" fill="#534bff" opacity=".05"/><rect fill="#999" height="111.97" rx="10.37" width="194.5" x="879.58" y="850.34"/><path d="m1063.68 962.32h-173.75a10.39 10.39 0 0 1 -9.66-6.58l193.11-.13a10.38 10.38 0 0 1 -9.7 6.71z" fill="#0a0a5c" opacity=".05"/><path d="m872.27 959.44h207.73a1.13 1.13 0 0 1 1.13 1.13 9.76 9.76 0 0 1 -9.76 9.76h-190.47a9.76 9.76 0 0 1 -9.76-9.76 1.13 1.13 0 0 1 1.13-1.13z" fill="#999"/><path d="m872.27 959.44h207.73a1.13 1.13 0 0 1 1.13 1.13 9.76 9.76 0 0 1 -9.76 9.76h-190.47a9.76 9.76 0 0 1 -9.76-9.76 1.13 1.13 0 0 1 1.13-1.13z" fill="#0a0a5c" opacity=".3"/><path d="m884.82 964.47h182.67v2.51h-182.67z" fill="#0a0a5c" opacity=".3"/><circle cx="975.07" cy="908.16" fill="#0a0a5c" opacity=".3" r="9"/><path d="m975.07 900.36a9 9 0 0 1 9 8.4 5.74 5.74 0 0 0 0-.6 9 9 0 0 0 -18 0 5.74 5.74 0 0 0 0 .6 9 9 0 0 1 9-8.4z" fill="#0a0a5c" opacity=".1"/><path d="m1071.09 853.54-188.75-.64 42.89-85.75s48.75-19.4 106.91 0z" fill="url(#a)"/></svg>